<svg xmlns="http://www.w3.org/2000/svg" xmlns:xlink="http://www.w3.org/1999/xlink" width="500" zoomAndPan="magnify" viewBox="0 0 375 374.999991" height="500" preserveAspectRatio="xMidYMid meet" version="1.0"><defs><clipPath id="26c4e2e62a"><path d="M 0 0 L 374 0 L 374 367.5 L 0 367.5 Z M 0 0 " clip-rule="nonzero"/></clipPath></defs><rect x="-37.5" width="450" fill="#ffffff" y="-37.499999" height="449.999989" fill-opacity="1"/><rect x="-37.5" width="450" fill="#ffffff" y="-37.499999" height="449.999989" fill-opacity="1"/><g clip-path="url(#26c4e2e62a)"><path fill="#0927eb" d="M 186.941406 0 C 83.570312 0 0.00390625 84.179688 0.00390625 188.324219 C 0.00390625 271.570312 53.546875 342.039062 127.828125 366.980469 C 137.113281 368.855469 140.515625 362.929688 140.515625 357.941406 C 140.515625 353.574219 140.210938 338.609375 140.210938 323.019531 C 88.207031 334.246094 77.378906 300.570312 77.378906 300.570312 C 69.023438 278.742188 56.640625 273.132812 56.640625 273.132812 C 39.621094 261.597656 57.878906 261.597656 57.878906 261.597656 C 76.757812 262.84375 86.667969 280.929688 86.667969 280.929688 C 103.375 309.609375 130.300781 301.507812 141.136719 296.515625 C 142.679688 284.355469 147.636719 275.9375 152.898438 271.261719 C 111.421875 266.894531 67.785156 250.683594 67.785156 178.34375 C 67.785156 157.765625 75.210938 140.929688 86.972656 127.835938 C 85.117188 123.160156 78.617188 103.824219 88.832031 77.949219 C 88.832031 77.949219 104.617188 72.957031 140.207031 97.277344 C 155.507812 93.136719 171.085938 91.058594 186.941406 91.042969 C 202.726562 91.042969 218.816406 93.226562 233.671875 97.277344 C 269.265625 72.957031 285.050781 77.949219 285.050781 77.949219 C 295.265625 103.824219 288.761719 123.160156 286.90625 127.835938 C 298.980469 140.929688 306.097656 157.765625 306.097656 178.34375 C 306.097656 250.683594 262.460938 266.582031 220.675781 271.261719 C 227.484375 277.1875 233.363281 288.410156 233.363281 306.183594 C 233.363281 331.4375 233.058594 351.703125 233.058594 357.9375 C 233.058594 362.929688 236.460938 368.855469 245.746094 366.984375 C 320.023438 342.035156 373.566406 271.570312 373.566406 188.324219 C 373.875 84.179688 290.003906 0 186.941406 0 Z M 186.941406 0 " fill-opacity="1" fill-rule="evenodd"/></g></svg>