<svg xmlns="http://www.w3.org/2000/svg" xmlns:xlink="http://www.w3.org/1999/xlink" width="500" zoomAndPan="magnify" viewBox="0 0 375 374.999991" height="500" preserveAspectRatio="xMidYMid meet" version="1.0"><rect x="-37.5" width="450" fill="#ffffff" y="-37.499999" height="449.999989" fill-opacity="1"/><rect x="-37.5" width="450" fill="#ffffff" y="-37.499999" height="449.999989" fill-opacity="1"/><path fill="#0927eb" d="M 296.875 0 L 78.125 0 C 34.984375 0 0 34.984375 0 78.125 L 0 296.875 C 0 340.015625 34.984375 375 78.125 375 L 296.875 375 C 340.03125 375 375 340.015625 375 296.875 L 375 78.125 C 375 34.984375 340.03125 0 296.875 0 Z M 125 296.875 L 78.125 296.875 L 78.125 125 L 125 125 Z M 101.5625 105.1875 C 86.46875 105.1875 74.21875 92.84375 74.21875 77.625 C 74.21875 62.40625 86.46875 50.0625 101.5625 50.0625 C 116.65625 50.0625 128.90625 62.40625 128.90625 77.625 C 128.90625 92.84375 116.671875 105.1875 101.5625 105.1875 Z M 312.5 296.875 L 265.625 296.875 L 265.625 209.3125 C 265.625 156.6875 203.125 160.671875 203.125 209.3125 L 203.125 296.875 L 156.25 296.875 L 156.25 125 L 203.125 125 L 203.125 152.578125 C 224.9375 112.171875 312.5 109.1875 312.5 191.265625 Z M 312.5 296.875 " fill-opacity="1" fill-rule="nonzero"/></svg>