<svg xmlns="http://www.w3.org/2000/svg" xmlns:xlink="http://www.w3.org/1999/xlink" width="500" zoomAndPan="magnify" viewBox="0 0 375 374.999991" height="500" preserveAspectRatio="xMidYMid meet" version="1.0"><rect x="-37.5" width="450" fill="#ffffff" y="-37.499999" height="449.999989" fill-opacity="1"/><rect x="-37.5" width="450" fill="#ffffff" y="-37.499999" height="449.999989" fill-opacity="1"/><path fill="#0927eb" d="M 17.746094 61.558594 C 20.691406 60.46875 23.84375 59.78125 27.175781 59.78125 L 347.824219 59.78125 C 351.15625 59.78125 354.308594 60.46875 357.253906 61.558594 L 213.585938 196.902344 C 198.960938 210.691406 176.042969 210.691406 161.414062 196.902344 Z M 370.996094 302.066406 C 373.484375 297.960938 375 293.195312 375 288.042969 L 375 86.957031 C 375 83.304688 374.253906 79.832031 372.945312 76.648438 L 238.5 203.296875 Z M 226.34375 214.566406 C 215.183594 224.125 201.363281 228.972656 187.5 228.972656 C 173.636719 228.972656 159.816406 224.128906 148.65625 214.566406 L 16.539062 313.050781 C 19.808594 314.441406 23.398438 315.21875 27.175781 315.21875 L 347.824219 315.21875 C 351.601562 315.21875 355.191406 314.441406 358.460938 313.050781 Z M 2.054688 76.644531 C 0.746094 79.832031 0 83.304688 0 86.957031 L 0 288.042969 C 0 293.195312 1.515625 297.960938 4.003906 302.066406 L 136.5 203.296875 Z M 2.054688 76.644531 " fill-opacity="1" fill-rule="nonzero"/></svg>