<svg xmlns="http://www.w3.org/2000/svg" xmlns:xlink="http://www.w3.org/1999/xlink" width="350" zoomAndPan="magnify" viewBox="0 0 262.5 187.499995" height="250" preserveAspectRatio="xMidYMid meet" version="1.0"><defs><g/><clipPath id="cefd3dd557"><path d="M 0.101562 0 L 261.902344 0 L 261.902344 187 L 0.101562 187 Z M 0.101562 0 " clip-rule="nonzero"/></clipPath></defs><g clip-path="url(#cefd3dd557)"><path fill="#ffffff" d="M 0.101562 0 L 261.902344 0 L 261.902344 187 L 0.101562 187 Z M 0.101562 0 " fill-opacity="1" fill-rule="nonzero"/><path fill="#0927eb" d="M 0.101562 0 L 261.902344 0 L 261.902344 187 L 0.101562 187 Z M 0.101562 0 " fill-opacity="1" fill-rule="nonzero"/></g><g fill="#ffffff" fill-opacity="1"><g transform="translate(25.894234, 110.33078)"><g><path d="M 3.484375 0 L 13.5625 0 L 13.5625 -0.796875 L 10.375 -2.25 L 10.375 -15.5625 L 16.953125 -15.5625 C 23.484375 -15.5625 28.078125 -19.84375 28.078125 -25.484375 C 28.078125 -31.3125 23.484375 -34.90625 16.953125 -34.90625 L 3.484375 -34.90625 L 3.484375 -34 L 6.1875 -32.8125 L 6.1875 -2.09375 L 3.484375 -0.890625 Z M 10.375 -17.59375 L 10.375 -32.859375 L 15.609375 -32.859375 C 20.84375 -32.859375 23.640625 -31.0625 23.640625 -25.484375 C 23.640625 -20.734375 20.84375 -17.59375 15.609375 -17.59375 Z M 10.375 -17.59375 "/></g></g></g><g fill="#ffffff" fill-opacity="1"><g transform="translate(56.457982, 110.33078)"><g><path d="M 2.25 0 L 10.765625 0 L 10.765625 -0.796875 L 8.375 -2.09375 L 8.375 -17.953125 C 9.28125 -20.734375 11.671875 -22.828125 14.515625 -22.828125 C 17.953125 -22.828125 20.046875 -20.484375 20.046875 -16.703125 L 20.046875 -2.09375 L 17.59375 -0.890625 L 17.59375 0 L 26.21875 0 L 26.21875 -0.796875 L 23.828125 -2.09375 L 23.828125 -16.859375 C 23.828125 -21.546875 20.734375 -24.828125 15.5 -24.828125 C 12.46875 -24.828125 9.765625 -23.484375 8.375 -21.234375 L 8.375 -35.15625 L 2.296875 -34.90625 L 2.296875 -34.046875 L 4.6875 -32.8125 L 4.6875 -2.09375 L 2.25 -0.890625 Z M 2.25 0 "/></g></g></g><g fill="#ffffff" fill-opacity="1"><g transform="translate(84.927645, 110.33078)"><g><path d="M 6.625 -29.96875 C 8.03125 -29.96875 9.21875 -31.15625 9.21875 -32.609375 C 9.21875 -34.046875 8.03125 -35.25 6.625 -35.25 C 5.1875 -35.25 3.984375 -34.046875 3.984375 -32.609375 C 3.984375 -31.15625 5.1875 -29.96875 6.625 -29.96875 Z M 2.5 0 L 11.015625 0 L 11.015625 -0.796875 L 8.625 -2.09375 L 8.625 -24.125 L 2.59375 -23.9375 L 2.59375 -23.078125 L 4.9375 -21.84375 L 4.9375 -2.09375 L 2.5 -0.890625 Z M 2.5 0 "/></g></g></g><g fill="#ffffff" fill-opacity="1"><g transform="translate(98.190221, 110.33078)"><g><path d="M 2.25 0 L 10.765625 0 L 10.765625 -0.796875 L 8.375 -2.09375 L 8.375 -35.15625 L 2.390625 -34.90625 L 2.390625 -34.046875 L 4.6875 -32.8125 L 4.6875 -2.09375 L 2.25 -0.890625 Z M 2.25 0 "/></g></g></g><g fill="#ffffff" fill-opacity="1"><g transform="translate(111.2035, 110.33078)"><g><path d="M 2.25 0 L 10.765625 0 L 10.765625 -0.796875 L 8.375 -2.09375 L 8.375 -35.15625 L 2.390625 -34.90625 L 2.390625 -34.046875 L 4.6875 -32.8125 L 4.6875 -2.09375 L 2.25 -0.890625 Z M 2.25 0 "/></g></g></g><g fill="#ffffff" fill-opacity="1"><g transform="translate(124.216779, 110.33078)"><g><path d="M 6.625 -29.96875 C 8.03125 -29.96875 9.21875 -31.15625 9.21875 -32.609375 C 9.21875 -34.046875 8.03125 -35.25 6.625 -35.25 C 5.1875 -35.25 3.984375 -34.046875 3.984375 -32.609375 C 3.984375 -31.15625 5.1875 -29.96875 6.625 -29.96875 Z M 2.5 0 L 11.015625 0 L 11.015625 -0.796875 L 8.625 -2.09375 L 8.625 -24.125 L 2.59375 -23.9375 L 2.59375 -23.078125 L 4.9375 -21.84375 L 4.9375 -2.09375 L 2.5 -0.890625 Z M 2.5 0 "/></g></g></g><g fill="#ffffff" fill-opacity="1"><g transform="translate(137.479355, 110.33078)"><g><path d="M 2.5 10.96875 L 11.515625 10.96875 L 11.515625 10.171875 L 8.578125 8.875 L 8.578125 -1.046875 C 10.765625 0.453125 12.90625 0.890625 14.859375 0.890625 C 21.984375 0.890625 26.96875 -4.890625 26.96875 -12.359375 C 26.96875 -19.25 22.34375 -24.828125 15.703125 -24.828125 C 12.8125 -24.828125 10.46875 -23.828125 8.625 -22.03125 L 8.421875 -24.125 L 2.59375 -23.9375 L 2.59375 -23.078125 L 4.9375 -21.84375 L 4.9375 8.875 L 2.5 10.078125 Z M 14.859375 -1 C 12.46875 -1 10.375 -1.84375 8.625 -3.546875 L 8.625 -19.890625 C 9.921875 -21.484375 12.21875 -23.03125 14.859375 -23.03125 C 20.140625 -23.03125 22.59375 -17.65625 22.59375 -12.0625 C 22.59375 -5.828125 19.75 -1 14.859375 -1 Z M 14.859375 -1 "/></g></g></g><g fill="#ffffff" fill-opacity="1"><g transform="translate(166.447612, 110.33078)"><g/></g></g><g fill="#ffffff" fill-opacity="1"><g transform="translate(179.959485, 110.33078)"><g><path d="M 3.484375 0 L 26.53125 0 L 27.03125 -8.46875 L 26.125 -8.46875 L 23.078125 -2.140625 L 10.375 -2.140625 L 10.375 -32.8125 L 12.96875 -34.109375 L 12.96875 -34.90625 L 3.484375 -34.90625 L 3.484375 -34 L 6.1875 -32.8125 L 6.1875 -2.09375 L 3.484375 -0.890625 Z M 3.484375 0 "/></g></g></g><g fill="#ffffff" fill-opacity="1"><g transform="translate(209.725488, 110.33078)"><g><path d="M 14.515625 0.890625 C 19.296875 0.890625 21.9375 -1 24.078125 -3.234375 L 22.890625 -4.484375 C 21.296875 -2.84375 18.296875 -1.296875 15.453125 -1.296875 C 10.015625 -1.296875 6.234375 -5.484375 6.234375 -12.96875 L 24.375 -13.015625 C 24.6875 -19.640625 21.390625 -24.828125 14.015625 -24.828125 C 7.421875 -24.828125 2 -19.59375 2 -12.515625 C 2 -4.09375 7.53125 0.890625 14.515625 0.890625 Z M 6.4375 -14.90625 C 6.875 -19.59375 9.921875 -23.140625 13.71875 -23.140625 C 18.296875 -23.140625 20.140625 -19.546875 20.296875 -14.90625 Z M 6.4375 -14.90625 "/></g></g></g></svg>